<svg xmlns="http://www.w3.org/2000/svg" width="649.414" height="301.76" viewBox="0 0 649.414 301.76">
  <g id="Logo_-_fin2u" data-name="Logo - fin2u" transform="translate(-147.158 -160)">
    <path id="Pfad_3" data-name="Pfad 3" d="M2.888,0h57.76L81.586-107.578c14.079-18.772,30.685-28.158,42.6-28.158,9.386,0,21.284,5.594,21.284,15.7,0,4.332-1.853,25.638-3.3,32.136a274.091,274.091,0,0,1-13,53.067C118.991-5.87,115.912,0,115.912,0H162.67s3.7-8.16,14.712-38.926,18.279-72.984,18.279-72.984A133.22,133.22,0,0,0,198.55-137.9c0-31.046-17.328-46.93-46.93-46.93-23.1,0-49.818,16.606-66.424,33.212H83.752l1.083-28.88H38.266Z" transform="translate(280 424)" fill="#52514f"/>
    <ellipse id="Ellipse_1" data-name="Ellipse 1" cx="35" cy="33.5" rx="35" ry="33.5" transform="translate(308 160)" fill="#52514f"/>
  </g>
</svg>
