<svg xmlns="http://www.w3.org/2000/svg" width="649.414" height="301.76" viewBox="0 0 649.414 301.76">
  <g id="Logo_-_fin2u" data-name="Logo - fin2u" transform="translate(-147.158 -160)">
    <path id="Pfad_4" data-name="Pfad 4" d="M15.065,6.433l306.6-2.2L309.351,33.8H-12.661Z" transform="translate(428.471 427.957)" fill="#0989f7"/>
    <path id="Pfad_6" data-name="Pfad 6" d="M69.338,47.505C116.268-8.758,185.554-94.854,185.554-152.04c0-48.884-28.158-81.166-72.922-81.166-30.324,0-54.15,18.447-75.81,46.117l27.436,42.428c15.884-20.292,28.88-30.437,41.154-30.437,15.162,0,23.826,11.99,23.826,30.437,0,48.884-53.573,121.715-121.733,192.166C7.505,47.505,86.031,47.719,69.338,47.505Z" transform="translate(430 393.206)" fill="#0989f7"/>
  </g>
</svg>
