<svg xmlns="http://www.w3.org/2000/svg" width="649.414" height="301.76" viewBox="0 0 649.414 301.76">
  <g id="Logo_-_fin2u" data-name="Logo - fin2u" transform="translate(-147.158 -160)">
    <path id="Pfad_2" data-name="Pfad 2" d="M48.374,0h57.76l26.714-135.736H191.33l8.664-44.764H141.512l.722-2.888c3.971-19.494,33.212-26.714,33.212-26.714l-2.888-45.486s-77.976,25.27-87.362,72.2l-.722,2.888-47.652,2.166-8.664,42.6H75.449Z" transform="translate(119 424)" fill="#52514f"/>
    <path id="Pfad_3" data-name="Pfad 3" d="M2.888,0h57.76L81.586-107.578c14.079-18.772,30.685-28.158,42.6-28.158,9.386,0,21.284,5.594,21.284,15.7,0,4.332-1.853,25.638-3.3,32.136a274.091,274.091,0,0,1-13,53.067C118.991-5.87,115.912,0,115.912,0H162.67s3.7-8.16,14.712-38.926,18.279-72.984,18.279-72.984A133.22,133.22,0,0,0,198.55-137.9c0-31.046-17.328-46.93-46.93-46.93-23.1,0-49.818,16.606-66.424,33.212H83.752l1.083-28.88H38.266Z" transform="translate(280 424)" fill="#52514f"/>
    <ellipse id="Ellipse_1" data-name="Ellipse 1" cx="35" cy="33.5" rx="35" ry="33.5" transform="translate(308 160)" fill="#52514f"/>
    <path id="Pfad_4" data-name="Pfad 4" d="M15.065,6.433l306.6-2.2L309.351,33.8H-12.661Z" transform="translate(428.471 427.957)" fill="#0989f7"/>
    <path id="Pfad_5" data-name="Pfad 5" d="M58.482,4.332c23.1,0,48.374-16.606,64.98-33.212h1.444L123.462,0h38.266L205.77-180.5H148.01L127.072-72.922C112.993-54.15,97.831-44.764,85.918-44.764c-9.386,0-15.162-5.054-15.162-15.162,0-4.332,1.444-9.386,2.888-15.884L94.582-180.5H36.822L14.44-68.59A133.22,133.22,0,0,0,11.552-42.6C11.552-11.552,28.88,4.332,58.482,4.332Z" transform="translate(590.802 419.668)" fill="#52514f"/>
    <path id="Pfad_6" data-name="Pfad 6" d="M69.338,47.505C116.268-8.758,185.554-94.854,185.554-152.04c0-48.884-28.158-81.166-72.922-81.166-30.324,0-54.15,18.447-75.81,46.117l27.436,42.428c15.884-20.292,28.88-30.437,41.154-30.437,15.162,0,23.826,11.99,23.826,30.437,0,48.884-53.573,121.715-121.733,192.166C7.505,47.505,86.031,47.719,69.338,47.505Z" transform="translate(430 393.206)" fill="#0989f7"/>
  </g>
</svg>
